<?xml version="1.0" encoding="UTF-8"?>
<svg id="_레이어_1" xmlns="http://www.w3.org/2000/svg" version="1.1" viewBox="0 0 893.5 816.47">
  <!-- Generator: Adobe Illustrator 29.7.0, SVG Export Plug-In . SVG Version: 2.1.1 Build 138)  -->
  <defs>
    <style>
      .st0 {
        fill: #fff;
      }

      .st1 {
        fill: none;
        stroke: #fff;
        stroke-linecap: round;
        stroke-linejoin: round;
      }
    </style>
  </defs>
  <g>
    <path d="M863.15,544.89c4.59-32.59-9.95-62.43-29.52-87.44-17.65-22.61-39.72-48.62-67.5-58.65-12.47-4.49-27.15-3.02-39.8-.15-10.54,2.42-21.27,6.58-30.17,13.01.05-15.58-.38-31.21-.45-46.73-.05-1.74-.05-3.51-.15-5.24,1.09-.3,2.12-.73,3.21-1.44,36.85-23.34,73.43-53.96,81.8-99.36,8.9-48.5-14.84-96.39-51.33-127.49-21.02-17.87-45.1-31.21-70.43-41.89-2.92-1.24-5.99-1.67-8.85-1.19-8.06-20.54-31.76-30.96-51.09-40.16-13.66-6.48-27.9-12.42-42.83-15.14-15.14-2.72-31.71-5.09-47.08-3.76-3.02.3-6.28,1.29-8.95.83-2.52-.38-5.09-1.84-7.51-2.67-5.19-1.79-10.44-3.56-15.68-5.29-10.74-3.66-21.52-7.61-32.44-10.64-26.71-7.46-54.9-7.41-81.96-1.99-29.77,5.93-58.25,19.05-82.93,36.65-.35-.05-.63-.15-.99-.2-20.97-3.02-43.53-2.86-64.3,1.34-21.07,4.26-39.62,15.33-56.23,28.55-15.98,12.76-31.26,27.55-44.71,42.98-15.04,17.21-24.93,38.47-19.15,60.54-.73.25-1.49.48-2.19.83-39.65,19.08-64.93,63.75-61.68,107.53,3.56,47.74,34.71,88.47,78.69,106.34,24.54,9.98,51.64,11.87,77.61,7.06,2.02,6.53,4.39,12.91,7.03,19.25-15.58-3.96-32.89-.83-47.23,7.21-11.22,6.28-20.92,15.24-29.77,24.54-9.3,9.75-18.25,19.92-26.16,30.81-15.78,21.62-25.56,47.84-21.17,74.78,1.04,6.43,3.11,12.61,5.99,18.5,2.52,5.19,6.23,9.3,5.54,15.38-.73,6.13-3.31,12.16-4.84,18.15-1.89,7.18-3.17,14.54-3.81,21.96-1.99,23.93,8.01,50.49,29.77,61.56.38,11.07,6.86,21.86,15.88,28.38,12.12,8.85,28.48,10.39,43.08,9.65,26.46-1.39,53.06-11.77,63.61-37.78.55-1.44.7-2.97.55-4.46l-1.19-3.76c-1.64-3.31-4.69-6.09-8.01-7.03-7.06-1.92-12.71,2.42-15.23,8.67-5.34,13.26-23.34,18.3-36.4,19.38-10.23.9-43.73.73-36.6-17.8,2.32-6.13-2.62-13.79-8.67-15.24-18-4.31-23.29-24.13-22.11-40.51.8-11.62,5.39-22.26,7.61-33.63,1.14-5.74,1.57-11.52.38-17.26-1.29-6.38-4.99-11.52-7.76-17.26-8.9-18.25-3.07-40.11,6.53-56.78,10.59-18.35,25.96-35.31,41.79-49.27,13.41-11.87,37.18-23.59,52.83-8.67,3.76,3.62,8.15,4.16,11.97,2.86.99,1.64,1.99,3.27,3.02,4.84,3.62,6.19,10.84,7.28,16.91,4.46,38.13-17.9,79.88-27.55,121.27-34.26,43.13-7.03,87.04-11.27,130.72-13.06,43.18-1.84,87.19-.55,129.58,8.6,16.68,3.62,33.93,8.36,49.2,15.08,8.75,3.81,18.4,6.19,27.15.63,1.74-1.09,3.07-2.37,4.21-3.86,4.39,3.11,10.49,3.66,15.43-1.14,5.14-4.99,14.54-8.85,22.81-11.04,8.01-2.02,18.8-3.41,25.41-1.57,10.54,2.92,19.74,10.23,27.65,17.55,9.75,9.05,18.73,19.05,27.3,29.22,15.83,18.93,29.49,41.64,28.55,67.17-.2,5.74-1.29,11.39-3.31,16.78-2.37,6.33-6.58,11.72-8.85,18.1-5.19,14.54,1.39,29.19,4.84,43.23,5.49,22.21,5.29,56.68-22.61,63.3-6.03,1.44-10.97,9.1-8.67,15.23,2.92,7.46-1.64,14.24-8.57,17.75-9.3,4.81-20.82,4.31-31.02,4.01-13.76-.45-32.49-2.37-40.11-15.04,7.13-18.1,6.43-40.42,3.11-59.26-1.57-9.2-6.58-17.26-15.18-21.37-1.67-.8-3.66-1.79-5.49-2.37,1.34-2.57,1.84-6.03,3.17-8.7,8.9-17.45,15.63-38.03,8.06-57.32-7.81-19.99-26.21-30.77-44.85-39.17-6.09-2.72-13.31-1.74-16.91,4.46-3.11,5.29-1.67,14.14,4.39,16.91,15.58,7.03,35.8,15.98,35.9,35.86.05,9.65-3.66,18.35-7.91,26.81-4.99,9.85-9.55,21.56-4.31,32.31,2.52,5.19,6.73,8.8,11.92,11.17,4.01,1.84,5.78,1.44,6.86,5.49,2.42,8.85,1.99,19.74,1.57,28.83-.38,9.78-2.67,19.48-8.85,27.35-6.19,7.76-14.79,13.11-23.39,17.71-5.78,3.07-7.06,8.57-5.64,13.41,2.19,6.83,9.85,12.36,18.1,7.96,9.45-5.04,18.35-11.22,25.66-18.9,14.34,14.24,35.96,18.4,57.32,18.65,15.98.25,33.08-1.34,46.13-11.42,9.2-7.13,15.73-18.65,15.88-30.32,23.14-11.32,34.38-38.92,33.14-64.3-.38-8.21-1.79-16.51-3.66-24.48-1.89-7.71-5.34-15.53-6.13-23.39-.7-6.83,3.41-11.42,6.23-17.31,3.46-7.18,5.78-14.63,6.93-22.51h0l.02.05ZM661.82,412.05c-16.08-6.23-32.84-10.64-49.71-13.96-40.91-8.11-83.05-9.88-124.69-8.47-41.69,1.44-83.48,5.64-124.79,11.49-39.77,5.59-79.59,13.61-117.26,27.75-5.59,2.09-11.07,4.36-16.56,6.73-8.11-13.96-14.73-28.63-19.33-44.16-1.29-4.39-2.47-8.85-3.41-13.36-.38-1.67-2.42-7.38-1.39-9.02,1.14-1.79,6.28-2.62,8.11-3.27,4.91-1.57,9.78-3.07,14.73-4.56,39.47-11.67,80.13-19.69,120.97-24.88,41.99-5.29,84.27-7.96,126.61-8.95,41.19-.94,83.05-1.74,124.09,3.07,18.9,2.19,37.78,6.19,55.6,12.86,5.39,1.99,14.79,4.39,15.91,10.94.38,2.32.25,4.94.25,7.31.1,18.2.2,36.4.35,54.6-3.21-1.29-6.33-2.92-9.5-4.16l.03.03h-.02ZM688.52,335.3c-.99-1.19-2.09-2.32-3.37-3.41-7.81-6.78-18-10.44-27.65-13.79-9.88-3.46-20.12-6.09-30.42-8.11-22.16-4.31-44.66-6.33-67.27-7.21,9.98-16.36,22.26-31.26,36.55-44.16,3.02-2.72,2.77-7.76,0-10.54-2.92-2.92-7.46-2.67-10.49,0-17.16,15.58-31.76,34.03-42.98,54.25-1.44,0-2.82,0-4.26-.05.45-11.49-.6-23.09.8-34.51,1.19-9.55,4.56-20.52,12.57-26.5,3.17-2.42,4.84-6.43,2.67-10.2-1.89-3.11-6.93-5.09-10.2-2.62-10.97,8.25-17.01,20.54-19.15,33.98-.2,1.19-.35,2.32-.45,3.51-1.49,12.07-.48,24.19-1.04,36.25-9.33.05-18.65.1-27.95.2-45.05.48-90.11,2.72-134.92,7.81-44.36,5.04-88.58,12.71-131.6,24.83-18.1,5.09-48.07,9.45-49.51,33.04-.2,2.92.05,5.93.48,9.02-37.53,6.96-77.71-5.59-102.57-34.86-23.26-27.3-30.37-67.5-14.24-100,8.9-17.9,22.81-32.11,40.84-40.74,3.27-1.57,5.14-4.84,5.78-8.36,1.29-.25,2.57-.63,3.66-1.24,6.28-3.72,7.13-10.79,4.39-16.96-6.43-14.54,5.34-30.96,14.59-41.09,11.57-12.67,24.03-24.93,37.08-36.06,12.42-10.54,26.46-19.92,42.19-24.58,16.86-5.04,35.26-5.04,52.68-4.01,13.36.73,29.92,3.21,37.33,15.73,8.11,13.69,29.49,1.29,21.37-12.47-3.91-6.58-9.1-11.67-15.08-15.68,35.51-20.87,77.79-32.24,118.65-24.09,20.37,4.04,40.42,12.02,59.99,18.9,2.47.83,4.91,1.99,7.41,2.62,4.74,1.19,8.47.35,13.16-.2,6.63-.73,13.31-.45,19.92.15,13.66,1.19,27.1,2.97,40.11,7.46,13.79,4.74,26.95,11.52,39.77,18.45,7.28,3.91,19.69,10.2,20.54,19.53.6,6.63,5.24,12.36,12.36,12.36,1.89,0,3.81-.6,5.58-1.49.15.05.25.2.38.25,38.69,16.36,77.76,39.47,98.33,77.54,9.55,17.61,14.49,37.63,12.91,57.67-1.44,18.15-10.08,36.2-21.62,50.14-13.21,16.08-30.02,28.13-47.43,39.27h.03l.08-.02Z"/>
    <path class="st0" d="M669.17,717.5c8.6-4.59,17.21-9.95,23.39-17.71,6.19-7.86,8.47-17.55,8.85-27.35.38-9.1.83-19.99-1.57-28.83-1.09-4.04-2.86-3.66-6.86-5.49-5.19-2.37-9.4-5.99-11.92-11.17-5.24-10.74-.7-22.46,4.31-32.31,4.26-8.47,7.96-17.16,7.91-26.81-.1-19.89-20.34-28.83-35.9-35.86-6.09-2.77-7.51-11.62-4.39-16.91,3.62-6.19,10.84-7.18,16.91-4.46,18.65,8.4,37.05,19.18,44.85,39.17,7.56,19.28.83,39.87-8.06,57.32-1.34,2.67-1.84,6.13-3.17,8.7,1.84.6,3.81,1.57,5.49,2.37,8.6,4.11,13.61,12.16,15.18,21.37,3.31,18.83,4.01,41.16-3.11,59.26,7.61,12.67,26.36,14.59,40.11,15.04,10.2.3,21.72.8,31.02-4.01,6.93-3.51,11.49-10.29,8.57-17.75-2.32-6.13,2.62-13.79,8.67-15.23,27.9-6.63,28.1-41.09,22.61-63.3-3.46-14.04-10.03-28.68-4.84-43.23,2.27-6.38,6.48-11.77,8.85-18.1,2.02-5.39,3.11-11.04,3.31-16.78.94-25.53-12.71-48.22-28.55-67.17-8.57-10.2-17.55-20.19-27.3-29.22-7.91-7.31-17.1-14.63-27.65-17.55-6.63-1.84-17.41-.45-25.41,1.57-8.25,2.19-17.65,6.03-22.81,11.04-4.94,4.81-11.04,4.26-15.43,1.14-1.14,1.49-2.47,2.77-4.21,3.86-8.75,5.54-18.4,3.17-27.15-.63-15.28-6.73-32.54-11.49-49.2-15.08-42.38-9.15-86.4-10.44-129.58-8.6-43.66,1.79-87.59,6.03-130.72,13.06-41.39,6.73-83.15,16.36-121.27,34.26-6.09,2.82-13.31,1.74-16.91-4.46-1.04-1.57-2.02-3.21-3.02-4.84-3.81,1.29-8.21.73-11.97-2.86-15.63-14.94-39.42-3.21-52.83,8.67-15.83,13.96-31.21,30.92-41.79,49.27-9.6,16.68-15.43,38.54-6.53,56.78,2.77,5.74,6.48,10.89,7.76,17.26,1.19,5.74.73,11.52-.38,17.26-2.22,11.39-6.83,22.01-7.61,33.63-1.19,16.36,4.11,36.2,22.11,40.51,6.03,1.44,10.97,9.1,8.67,15.24-7.13,18.55,26.36,18.7,36.6,17.8,13.06-1.09,31.06-6.13,36.4-19.38,2.52-6.23,8.15-10.59,15.23-8.67,3.31.94,6.38,3.72,8.01,7.03-1.09-3.86-2.09-7.76-2.82-11.67-8.31-44.71,3.07-89.76,18.05-131.82,2.22-6.33,8.36-10.54,15.18-8.67,6.13,1.67,10.89,8.95,8.67,15.24-7.61,21.32-14.29,43.08-17.87,65.43-5.34,33.49-2.32,70.28,19.18,97.77,10.94,14.04,26.26,25.76,43.33,30.67.7-5.39,2.72-10.54,7.28-13.44,5.44-3.51,12.67-4.39,18.9-2.67,13.99,3.81,23.54,17.8,19.92,32.14-.83,3.27-3.27,6.13-6.28,7.66,7.96,4.91,17.1,7.91,25.96,10.59,62.86,18.98,119.95,7.86,136.66,4.69,47.54-8.9,70.13-14.29,80.56-19.05,0,0,20.37-5.84,29.49-6.78.1,0,.2.05.35,0,.35-.05.73-.05,1.09-.05h.05c14.49-3.62,31.02-14.39,42.03-24.48h.05c-1.44-4.84-.15-10.34,5.64-13.41h0l-.05-.02ZM406.31,524.61c0-18.8,8.75-34.08,19.64-34.08s19.64,15.28,19.64,34.08-8.8,34.13-19.64,34.13-19.64-15.28-19.64-34.13ZM560.81,634.47c-8.57,6.78-19.43,5.93-29.39,3.27-9.45-2.52-19.08-5.44-27.68-10.13-1.89-1.04-3.66-2.19-5.39-3.41-.25.38-.48.83-.73,1.24-4.99,6.96-13.41,12.22-20.62,16.56-14.04,8.4-37.4,20.12-51.78,6.43-6.13-5.88-7.66-14.89-3.51-22.36,4.16-7.51,12.71-12.76,19.79-17.06,7.61-4.56,16.13-8.31,24.88-10.08-.83-1.54-1.57-3.17-2.22-4.84-2.37-6.43-2.22-14.14,1.19-20.19,1.74-3.07,4.56-5.64,7.66-7.28.9-.45,1.89-.7,2.77-1.19.2-.15,1.04-.73,1.14-.83,1.34-.73,2.72-1.34,4.26-1.34h.1c5.54-1.67,11.32-1.79,17.16-1.79,3.02,0,6.03.15,9.05.48,1.89.25,3.76.48,5.64.9.1.05.73.25,1.29.38,1.74,0,3.37.73,4.66,1.84.48.3.94.63,1.39,1.04.9.6,1.64,1.39,2.09,2.32.1.3.15.6.25.9.25.6.45,1.19.55,1.79,1.54,6.43-.7,13.79-3.91,20.09,7.66.63,15.43,2.37,20.62,3.31,9.88,1.84,20.19,5.34,25.41,14.63,4.91,8.7,3.27,19.08-4.59,25.31l-.03-.03-.03.05ZM554.64,558.73c-10.89,0-19.64-15.28-19.64-34.13s8.75-34.08,19.64-34.08,19.64,15.28,19.64,34.08-8.8,34.13-19.64,34.13Z"/>
    <path class="st0" d="M735.95,296.03c11.52-13.96,20.19-31.99,21.62-50.14,1.57-20.02-3.37-40.07-12.91-57.67-20.57-38.08-59.64-61.18-98.33-77.54-.15-.05-.25-.2-.38-.25-1.79.9-3.72,1.49-5.58,1.49-7.13,0-11.77-5.74-12.36-12.36-.83-9.33-13.26-15.63-20.54-19.53-12.81-6.93-25.96-13.69-39.77-18.45-13.01-4.49-26.46-6.28-40.11-7.46-6.63-.6-13.31-.9-19.92-.15-4.69.55-8.4,1.39-13.16.2-2.52-.63-4.94-1.79-7.41-2.62-19.59-6.86-39.62-14.84-59.99-18.9-40.84-8.15-83.15,3.21-118.65,24.09,5.99,4.01,11.17,9.1,15.08,15.68,8.11,13.76-13.26,26.16-21.37,12.47-7.41-12.51-23.99-14.98-37.33-15.73-17.41-1.04-35.8-1.04-52.68,4.01-15.73,4.66-29.77,14.04-42.19,24.58-13.06,11.14-25.53,23.39-37.08,36.06-9.25,10.13-21.02,26.56-14.59,41.09,2.72,6.19,1.89,13.26-4.39,16.96-1.09.6-2.37.99-3.66,1.24-.63,3.51-2.52,6.78-5.78,8.36-18.05,8.67-31.96,22.84-40.84,40.74-16.13,32.49-9.02,72.7,14.24,100,24.88,29.29,65.03,41.84,102.57,34.86-.45-3.07-.7-6.09-.48-9.02,1.44-23.59,31.41-27.95,49.51-33.04,43.03-12.12,87.26-19.79,131.6-24.83,44.81-5.09,89.86-7.31,134.92-7.81,9.3-.1,18.6-.15,27.95-.2.55-12.07-.45-24.19,1.04-36.25.1-1.19.25-2.32.45-3.51,2.12-13.44,8.15-25.73,19.15-33.98,3.27-2.47,8.31-.48,10.2,2.62,2.19,3.76.48,7.76-2.67,10.2-8.01,5.99-11.39,16.96-12.57,26.5-1.39,11.42-.35,23.04-.8,34.51,1.44.05,2.82.05,4.26.05,11.22-20.24,25.81-38.69,42.98-54.25,3.02-2.67,7.56-2.92,10.49,0s3.02,7.81,0,10.54c-14.29,12.91-26.56,27.78-36.55,44.16,22.61.9,45.1,2.92,67.27,7.21,10.29,2.02,20.54,4.66,30.42,8.11,9.65,3.37,19.84,7.03,27.65,13.79,1.29,1.09,2.37,2.22,3.37,3.41,17.41-11.14,34.23-23.19,47.43-39.27h-.03l-.08.02Z"/>
    <path class="st0" d="M670.7,354.28c-1.14-6.53-10.54-8.95-15.91-10.94-17.8-6.68-36.7-10.69-55.6-12.86-41.06-4.81-82.9-4.01-124.09-3.07-42.34.99-84.62,3.66-126.61,8.95-40.84,5.19-81.51,13.21-120.97,24.88-4.94,1.49-9.85,2.97-14.73,4.56-1.84.63-6.96,1.49-8.11,3.27-1.04,1.64.99,7.31,1.39,9.02.94,4.49,2.12,8.95,3.41,13.36,4.59,15.53,11.22,30.22,19.33,44.16,5.49-2.37,10.97-4.66,16.56-6.73,37.68-14.14,77.51-22.16,117.26-27.75,41.29-5.84,83.08-10.03,124.79-11.49,41.64-1.44,83.78.35,124.69,8.47,16.86,3.31,33.63,7.71,49.71,13.96,3.17,1.24,6.28,2.86,9.5,4.16-.15-18.2-.25-36.4-.35-54.6,0-2.37.15-4.99-.25-7.31l-.03-.03h.02Z"/>
    <path d="M620.31,755.44c-.15.05-.25,0-.35,0-9.1.94-29.49,6.78-29.49,6.78-10.44,4.74-33.04,10.13-80.56,19.05-16.71,3.17-73.78,14.29-136.66-4.69-8.85-2.67-18-5.68-25.96-10.59,3.02-1.54,5.44-4.39,6.28-7.66,3.62-14.34-5.93-28.33-19.92-32.14-6.23-1.74-13.44-.83-18.9,2.67-4.56,2.92-6.58,8.06-7.28,13.44-17.06-4.91-32.39-16.61-43.33-30.67-21.52-27.5-24.54-64.3-19.18-97.77,3.56-22.36,10.23-44.11,17.87-65.43,2.22-6.28-2.52-13.54-8.67-15.24-6.83-1.89-12.96,2.32-15.18,8.67-14.98,42.03-26.36,87.09-18.05,131.82.73,3.91,1.74,7.81,2.82,11.67l1.19,3.76c9.75,30.07,31.06,56.92,59.64,70.78,9.5,4.56,19.38,7.61,29.52,8.9,12.16,18.4,38.08,27.78,57.87,33.18,30.67,8.4,62.91,10.2,94.57,8.47,24.19-1.34,52.68-2.27,87.99-12.86,38.37-11.49,78.59-31.31,76.6-38.37-.63-2.22-5.54-3.76-9.68-3.76h-.05c-.35,0-.73,0-1.09.05v-.03h0ZM330.31,752.61c-6.38,0-6.36-9.88,0-9.88s6.36,9.88,0,9.88Z"/>
    <path class="st1" d="M620.31,755.44c.35-.05.73-.05,1.09-.05"/>
    <path d="M554.64,490.54c-10.89,0-19.64,15.28-19.64,34.08s8.75,34.13,19.64,34.13,19.64-15.28,19.64-34.13-8.8-34.08-19.64-34.08Z"/>
    <path d="M539.98,594.5c-5.19-.94-12.96-2.67-20.62-3.31,3.21-6.28,5.44-13.66,3.91-20.09-.1-.6-.3-1.19-.55-1.79-.1-.3-.15-.6-.25-.9-.45-.94-1.19-1.74-2.09-2.32-.45-.38-.9-.73-1.39-1.04-1.29-1.09-2.92-1.84-4.66-1.84-.55-.15-1.19-.35-1.29-.38-1.89-.38-3.76-.63-5.64-.9-3.02-.35-6.03-.48-9.05-.48-5.84,0-11.62.1-17.16,1.79h-.1c-1.54,0-2.92.6-4.26,1.34-.1.1-.94.7-1.14.83-.9.48-1.89.73-2.77,1.19-3.11,1.64-5.93,4.21-7.66,7.28-3.41,6.03-3.56,13.76-1.19,20.19.63,1.67,1.39,3.31,2.22,4.84-8.75,1.79-17.26,5.54-24.88,10.08-7.06,4.31-15.63,9.55-19.79,17.06-4.16,7.46-2.62,16.46,3.51,22.36,14.39,13.69,37.73,1.99,51.78-6.43,7.21-4.36,15.63-9.6,20.62-16.56.25-.38.48-.83.73-1.24,1.74,1.24,3.51,2.37,5.39,3.41,8.6,4.69,18.25,7.61,27.68,10.13,9.95,2.67,20.82,3.51,29.39-3.27,7.86-6.23,9.5-16.61,4.59-25.31-5.24-9.3-15.53-12.81-25.41-14.63l.03.03.03-.05Z"/>
    <path d="M445.57,524.61c0-18.8-8.8-34.08-19.64-34.08s-19.64,15.28-19.64,34.08,8.75,34.13,19.64,34.13,19.64-15.28,19.64-34.13Z"/>
    <path class="st0" d="M330.31,742.71c-6.36,0-6.38,9.88,0,9.88s6.38-9.88,0-9.88Z"/>
  </g>
  <path d="M820.44,341.65c-1.82-.67-8.05-2.44-7.83-4.89.13-1.52,4.62-3.87,5.66-4.86,4.41-4.24,6.78-10.35,4.93-16.4-4.89-15.93-22.82-13.17-34.41-7.85-.57.27-1.07.55-1.5.88-5.33-3.79-15.14.7-13.16,9.03,3.32,13.92,7.16,27.7,11.55,41.32,3.29,10.18,19.4,5.83,16.1-4.44-.77-2.39-1.5-4.79-2.24-7.2,3.92,4.96,10.39,8.28,16.46,10.5,10.1,3.69,14.46-12.44,4.44-16.1v-.02ZM803.59,322.39c-3.86,3.22-6.9,6.81-7.58,11.97-.03.27-.03.5-.05.75-1.15-4.07-2.25-8.16-3.31-12.26,1.44.15,2.99-.07,4.57-.8,2.35-1.09,6.6-3.46,9.35-2.1-.03.05-.07.08-.1.13-.94.8-1.89,1.59-2.87,2.32l-.02-.02Z"/>
  <path d="M859.84,280.44c-1.82-.67-8.05-2.44-7.83-4.89.13-1.52,4.62-3.87,5.66-4.86,4.41-4.24,6.78-10.35,4.93-16.4-4.89-15.93-22.82-13.17-34.41-7.85-.57.27-1.07.55-1.5.88-5.33-3.79-15.14.7-13.16,9.03,3.32,13.92,7.16,27.7,11.55,41.32,3.29,10.18,19.4,5.83,16.1-4.44-.77-2.39-1.5-4.79-2.24-7.2,3.92,4.96,10.39,8.28,16.46,10.5,10.1,3.69,14.46-12.44,4.44-16.1v-.02ZM842.99,261.18c-3.86,3.22-6.9,6.81-7.58,11.97-.03.27-.03.5-.05.75-1.15-4.07-2.25-8.16-3.31-12.26,1.44.15,2.99-.07,4.57-.8,2.35-1.09,6.6-3.46,9.35-2.1-.03.05-.07.08-.1.13-.94.8-1.89,1.59-2.87,2.32l-.02-.02Z"/>
</svg>