<?xml version="1.0" encoding="UTF-8"?>
<svg id="_레이어_1" data-name="레이어_1" xmlns="http://www.w3.org/2000/svg" version="1.1" viewBox="0 0 960 960">
  <!-- Generator: Adobe Illustrator 29.7.0, SVG Export Plug-In . SVG Version: 2.1.1 Build 138)  -->
  <defs>
    <style>
      .st0 {
        fill: #fff;
      }

      .st1 {
        fill: none;
        stroke: #fff;
        stroke-linecap: round;
        stroke-linejoin: round;
      }
    </style>
  </defs>
  <path d="M761.43,545.59c3.18-22.54-6.88-43.17-20.42-60.47-12.21-15.63-27.47-33.62-46.69-40.57-8.62-3.11-18.78-2.09-27.53-.1-7.29,1.68-14.71,4.55-20.86,9,.03-10.77-.27-21.58-.31-32.32-.03-1.2-.03-2.43-.1-3.63.75-.21,1.47-.51,2.22-.99,25.48-16.14,50.79-37.32,56.57-68.72,6.16-33.55-10.26-66.66-35.5-88.18-14.54-12.35-31.19-21.58-48.71-28.97-2.02-.86-4.14-1.16-6.12-.82-5.58-14.2-21.96-21.41-35.33-27.77-9.44-4.48-19.29-8.59-29.62-10.47-10.47-1.88-21.93-3.52-32.56-2.6-2.09.21-4.34.89-6.19.58-1.74-.27-3.52-1.27-5.2-1.85-3.59-1.23-7.22-2.46-10.84-3.66-7.42-2.53-14.88-5.27-22.44-7.35-18.47-5.16-37.97-5.13-56.68-1.37-20.59,4.1-40.29,13.17-57.36,25.35-.24-.03-.44-.1-.68-.14-14.5-2.09-30.1-1.98-44.47.92-14.57,2.94-27.4,10.6-38.89,19.74-11.05,8.82-21.62,19.05-30.92,29.72-10.4,11.9-17.24,26.61-13.24,41.87-.51.17-1.03.34-1.51.58-27.43,13.2-44.91,44.09-42.65,74.36,2.46,33.01,24.01,61.19,54.42,73.54,16.97,6.91,35.71,8.21,53.67,4.89,1.4,4.52,3.04,8.93,4.86,13.31-10.77-2.74-22.75-.58-32.67,4.99-7.76,4.34-14.47,10.54-20.59,16.97-6.43,6.74-12.62,13.78-18.09,21.31-10.91,14.95-17.68,33.08-14.64,51.72.72,4.45,2.15,8.72,4.14,12.79,1.74,3.59,4.31,6.43,3.83,10.64-.51,4.24-2.29,8.41-3.35,12.55-1.3,4.96-2.19,10.06-2.63,15.19-1.37,16.55,5.54,34.92,20.59,42.58.27,7.66,4.75,15.12,10.98,19.63,8.38,6.12,19.7,7.18,29.79,6.67,18.3-.96,36.7-8.14,43.99-26.13.38-.99.48-2.05.38-3.08l-.82-2.6c-1.13-2.29-3.25-4.21-5.54-4.86-4.89-1.33-8.79,1.68-10.53,5.99-3.69,9.17-16.14,12.66-25.17,13.41-7.08.62-30.24.51-25.31-12.31,1.61-4.24-1.81-9.54-5.99-10.54-12.45-2.98-16.11-16.69-15.29-28.01.55-8.04,3.73-15.39,5.27-23.26.79-3.97,1.09-7.97.27-11.94-.89-4.41-3.45-7.97-5.37-11.94-6.16-12.62-2.12-27.74,4.51-39.27,7.32-12.69,17.96-24.42,28.9-34.07,9.27-8.21,25.72-16.32,36.53-5.99,2.6,2.5,5.64,2.87,8.28,1.98.68,1.13,1.37,2.26,2.09,3.35,2.5,4.28,7.49,5.03,11.7,3.08,26.37-12.38,55.24-19.05,83.87-23.7,29.83-4.86,60.2-7.8,90.4-9.03,29.86-1.27,60.3-.38,89.62,5.95,11.53,2.5,23.46,5.78,34.03,10.43,6.05,2.63,12.72,4.28,18.78.44,1.2-.75,2.12-1.64,2.91-2.67,3.04,2.15,7.25,2.53,10.67-.79,3.56-3.45,10.06-6.12,15.77-7.63,5.54-1.4,13-2.36,17.58-1.09,7.29,2.02,13.65,7.08,19.12,12.14,6.74,6.26,12.96,13.17,18.88,20.21,10.95,13.1,20.39,28.8,19.74,46.45-.14,3.97-.89,7.87-2.29,11.6-1.64,4.38-4.55,8.11-6.12,12.52-3.59,10.06.96,20.18,3.35,29.89,3.8,15.36,3.66,39.2-15.63,43.78-4.17.99-7.59,6.29-5.99,10.53,2.02,5.16-1.13,9.85-5.92,12.28-6.43,3.32-14.4,2.98-21.45,2.77-9.51-.31-22.47-1.64-27.74-10.4,4.93-12.52,4.45-27.95,2.15-40.98-1.09-6.36-4.55-11.94-10.5-14.78-1.16-.55-2.53-1.23-3.8-1.64.92-1.78,1.27-4.17,2.19-6.02,6.16-12.07,10.81-26.3,5.58-39.64-5.4-13.82-18.13-21.28-31.02-27.09-4.21-1.88-9.2-1.2-11.7,3.08-2.15,3.66-1.16,9.78,3.04,11.7,10.77,4.86,24.76,11.05,24.83,24.8.03,6.67-2.53,12.69-5.47,18.54-3.45,6.81-6.6,14.91-2.98,22.34,1.74,3.59,4.65,6.09,8.24,7.73,2.77,1.27,4,.99,4.75,3.8,1.68,6.12,1.37,13.65,1.09,19.94-.27,6.77-1.85,13.48-6.12,18.92-4.28,5.37-10.23,9.06-16.18,12.25-4,2.12-4.89,5.92-3.9,9.27,1.51,4.72,6.81,8.55,12.52,5.51,6.53-3.49,12.69-7.76,17.75-13.07,9.92,9.85,24.87,12.72,39.64,12.9,11.05.17,22.88-.92,31.91-7.9,6.36-4.93,10.88-12.9,10.98-20.97,16.01-7.83,23.77-26.92,22.92-44.47-.27-5.68-1.23-11.42-2.53-16.93-1.3-5.34-3.69-10.74-4.24-16.18-.48-4.72,2.36-7.9,4.31-11.97,2.39-4.96,4-10.12,4.79-15.56ZM622.19,453.71c-11.12-4.31-22.71-7.35-34.38-9.65-28.29-5.61-57.43-6.84-86.23-5.85-28.83.99-57.74,3.9-86.3,7.94-27.5,3.87-55.04,9.41-81.1,19.19-3.87,1.44-7.66,3.01-11.46,4.65-5.61-9.65-10.19-19.8-13.37-30.54-.89-3.04-1.71-6.12-2.36-9.24-.27-1.16-1.68-5.1-.96-6.23.79-1.23,4.34-1.81,5.61-2.26,3.39-1.09,6.77-2.12,10.19-3.15,27.3-8.07,55.41-13.61,83.66-17.21,29.04-3.66,58.28-5.51,87.56-6.19,28.49-.65,57.43-1.2,85.82,2.12,13.07,1.51,26.13,4.28,38.45,8.89,3.73,1.37,10.23,3.04,11.01,7.56.27,1.61.17,3.42.17,5.06.07,12.59.14,25.17.24,37.76-2.22-.89-4.38-2.02-6.57-2.87ZM640.66,400.63c-.68-.82-1.44-1.61-2.33-2.36-5.4-4.69-12.45-7.22-19.12-9.54-6.84-2.39-13.92-4.21-21.04-5.61-15.32-2.98-30.89-4.38-46.52-4.99,6.91-11.32,15.39-21.62,25.28-30.54,2.09-1.88,1.92-5.37,0-7.29-2.02-2.02-5.16-1.85-7.25,0-11.87,10.77-21.96,23.53-29.72,37.52-.99,0-1.95,0-2.94-.03.31-7.94-.41-15.97.55-23.87.82-6.6,3.15-14.19,8.69-18.33,2.19-1.68,3.35-4.45,1.85-7.05-1.3-2.15-4.79-3.52-7.05-1.81-7.59,5.71-11.77,14.2-13.24,23.5-.14.82-.24,1.61-.31,2.43-1.03,8.35-.34,16.73-.72,25.07-6.46.03-12.9.07-19.33.14-31.16.34-62.32,1.88-93.31,5.4-30.68,3.49-61.26,8.79-91.02,17.17-12.52,3.52-33.25,6.53-34.24,22.85-.14,2.02.03,4.1.34,6.23-25.96,4.82-53.74-3.87-70.94-24.11-16.08-18.88-21-46.69-9.85-69.16,6.16-12.38,15.77-22.2,28.25-28.18,2.26-1.09,3.56-3.35,4-5.78.89-.17,1.78-.44,2.53-.86,4.34-2.57,4.93-7.46,3.04-11.73-4.45-10.06,3.69-21.41,10.09-28.42,8-8.76,16.62-17.24,25.65-24.94,8.59-7.29,18.3-13.78,29.18-17,11.66-3.49,24.39-3.49,36.43-2.77,9.24.51,20.69,2.22,25.82,10.88,5.61,9.47,20.39.89,14.78-8.62-2.7-4.55-6.29-8.07-10.43-10.84,24.56-14.43,53.8-22.3,82.06-16.66,14.09,2.8,27.95,8.31,41.49,13.07,1.71.58,3.39,1.37,5.13,1.81,3.28.82,5.85.24,9.1-.14,4.58-.51,9.2-.31,13.78.1,9.44.82,18.74,2.05,27.74,5.16,9.54,3.28,18.64,7.97,27.5,12.76,5.03,2.7,13.61,7.05,14.2,13.51.41,4.58,3.63,8.55,8.55,8.55,1.3,0,2.63-.41,3.86-1.03.1.03.17.14.27.17,26.75,11.32,53.77,27.3,68,53.63,6.6,12.18,10.02,26.03,8.93,39.88-.99,12.55-6.98,25.04-14.95,34.68-9.13,11.12-20.76,19.46-32.8,27.16Z"/>
  <path class="st0" d="M627.28,664.96c5.95-3.18,11.9-6.88,16.18-12.25,4.28-5.44,5.85-12.14,6.12-18.92.27-6.29.58-13.82-1.09-19.94-.75-2.8-1.98-2.53-4.75-3.8-3.59-1.64-6.5-4.14-8.24-7.73-3.63-7.42-.48-15.53,2.98-22.34,2.94-5.85,5.51-11.87,5.47-18.54-.07-13.75-14.06-19.94-24.83-24.8-4.21-1.92-5.2-8.04-3.04-11.7,2.5-4.28,7.49-4.96,11.7-3.08,12.9,5.81,25.62,13.27,31.02,27.09,5.23,13.34.58,27.57-5.58,39.64-.92,1.85-1.27,4.24-2.19,6.02,1.27.41,2.63,1.09,3.8,1.64,5.95,2.84,9.41,8.41,10.5,14.78,2.29,13.03,2.77,28.46-2.15,40.98,5.27,8.76,18.23,10.09,27.74,10.4,7.05.21,15.02.55,21.45-2.77,4.79-2.43,7.94-7.11,5.92-12.28-1.61-4.24,1.81-9.54,5.99-10.53,19.29-4.58,19.43-28.42,15.63-43.78-2.39-9.71-6.94-19.84-3.35-29.89,1.57-4.41,4.48-8.14,6.12-12.52,1.4-3.73,2.15-7.63,2.29-11.6.65-17.65-8.79-33.35-19.74-46.45-5.92-7.05-12.14-13.96-18.88-20.21-5.47-5.06-11.83-10.12-19.12-12.14-4.58-1.27-12.04-.31-17.58,1.09-5.71,1.51-12.21,4.17-15.77,7.63-3.42,3.32-7.63,2.94-10.67.79-.79,1.03-1.71,1.92-2.91,2.67-6.05,3.83-12.72,2.19-18.78-.44-10.57-4.65-22.51-7.94-34.03-10.43-29.31-6.33-59.76-7.22-89.62-5.95-30.2,1.23-60.58,4.17-90.4,9.03-28.63,4.65-57.5,11.32-83.87,23.7-4.21,1.95-9.2,1.2-11.7-3.08-.72-1.09-1.4-2.22-2.09-3.35-2.63.89-5.68.51-8.28-1.98-10.81-10.33-27.26-2.22-36.53,5.99-10.95,9.65-21.58,21.38-28.9,34.07-6.64,11.53-10.67,26.65-4.51,39.27,1.92,3.97,4.48,7.53,5.37,11.94.82,3.97.51,7.97-.27,11.94-1.54,7.87-4.72,15.22-5.27,23.26-.82,11.32,2.84,25.04,15.29,28.01,4.17.99,7.59,6.29,5.99,10.54-4.93,12.83,18.23,12.93,25.31,12.31,9.03-.75,21.48-4.24,25.17-13.41,1.74-4.31,5.64-7.32,10.53-5.99,2.29.65,4.41,2.57,5.54,4.86-.75-2.67-1.44-5.37-1.95-8.07-5.75-30.92,2.12-62.08,12.48-91.16,1.54-4.38,5.78-7.29,10.5-5.99,4.24,1.16,7.53,6.19,5.99,10.54-5.27,14.74-9.89,29.79-12.35,45.25-3.69,23.16-1.61,48.6,13.27,67.62,7.56,9.71,18.16,17.82,29.96,21.21.48-3.73,1.88-7.29,5.03-9.3,3.76-2.43,8.76-3.04,13.07-1.85,9.68,2.63,16.28,12.31,13.78,22.23-.58,2.26-2.26,4.24-4.34,5.3,5.51,3.39,11.83,5.47,17.96,7.32,43.47,13.13,82.95,5.44,94.51,3.25,32.87-6.16,48.5-9.89,55.72-13.17,0,0,14.09-4.04,20.39-4.69.07,0,.14.03.24,0,.24-.03.51-.03.75-.03h.03c10.02-2.5,21.45-9.95,29.07-16.93h.03c-.99-3.35-.1-7.15,3.9-9.27ZM445.49,531.56c0-13,6.05-23.57,13.58-23.57s13.58,10.57,13.58,23.57-6.09,23.6-13.58,23.6-13.58-10.57-13.58-23.6ZM552.34,607.53c-5.92,4.69-13.44,4.1-20.32,2.26-6.53-1.74-13.2-3.76-19.15-7.01-1.3-.72-2.53-1.51-3.73-2.36-.17.27-.34.58-.51.86-3.45,4.82-9.27,8.45-14.26,11.46-9.71,5.81-25.86,13.92-35.81,4.45-4.24-4.07-5.3-10.3-2.43-15.46,2.87-5.2,8.79-8.82,13.68-11.8,5.27-3.15,11.15-5.75,17.2-6.98-.58-1.06-1.09-2.19-1.54-3.35-1.64-4.45-1.54-9.78.82-13.96,1.2-2.12,3.15-3.9,5.3-5.03.62-.31,1.3-.48,1.92-.82.14-.1.72-.51.79-.58.92-.51,1.88-.92,2.94-.92h.07c3.83-1.16,7.83-1.23,11.87-1.23,2.09,0,4.17.1,6.26.34,1.3.17,2.6.34,3.9.62.07.03.51.17.89.27,1.2,0,2.33.51,3.22,1.27.34.21.65.44.96.72.62.41,1.13.96,1.44,1.61.07.21.1.41.17.62.17.41.31.82.38,1.23,1.06,4.45-.48,9.54-2.7,13.89,5.3.44,10.67,1.64,14.26,2.29,6.84,1.27,13.96,3.69,17.58,10.12,3.39,6.02,2.26,13.2-3.18,17.51ZM548.07,555.16c-7.53,0-13.58-10.57-13.58-23.6s6.05-23.57,13.58-23.57,13.58,10.57,13.58,23.57-6.09,23.6-13.58,23.6Z"/>
  <path class="st0" d="M673.46,373.47c7.97-9.65,13.96-22.13,14.95-34.68,1.09-13.85-2.33-27.71-8.93-39.88-14.23-26.34-41.25-42.31-68-53.63-.1-.03-.17-.14-.27-.17-1.23.62-2.57,1.03-3.86,1.03-4.93,0-8.14-3.97-8.55-8.55-.58-6.46-9.17-10.81-14.2-13.51-8.86-4.79-17.96-9.47-27.5-12.76-9-3.11-18.3-4.34-27.74-5.16-4.58-.41-9.2-.62-13.78-.1-3.25.38-5.81.96-9.1.14-1.74-.44-3.42-1.23-5.13-1.81-13.54-4.75-27.4-10.26-41.49-13.07-28.25-5.64-57.5,2.22-82.06,16.66,4.14,2.77,7.73,6.29,10.43,10.84,5.61,9.51-9.17,18.09-14.78,8.62-5.13-8.65-16.59-10.36-25.82-10.88-12.04-.72-24.76-.72-36.43,2.77-10.88,3.22-20.59,9.71-29.18,17-9.03,7.7-17.65,16.18-25.65,24.94-6.4,7.01-14.54,18.37-10.09,28.42,1.88,4.28,1.3,9.17-3.04,11.73-.75.41-1.64.68-2.53.86-.44,2.43-1.74,4.69-4,5.78-12.48,5.99-22.1,15.8-28.25,28.18-11.15,22.47-6.23,50.28,9.85,69.16,17.2,20.25,44.98,28.94,70.94,24.11-.31-2.12-.48-4.21-.34-6.23.99-16.32,21.72-19.33,34.24-22.85,29.76-8.38,60.34-13.68,91.02-17.17,30.99-3.52,62.15-5.06,93.31-5.4,6.43-.07,12.86-.1,19.33-.14.38-8.35-.31-16.73.72-25.07.07-.82.17-1.61.31-2.43,1.47-9.3,5.64-17.79,13.24-23.5,2.26-1.71,5.75-.34,7.05,1.81,1.51,2.6.34,5.37-1.85,7.05-5.54,4.14-7.87,11.73-8.69,18.33-.96,7.9-.24,15.94-.55,23.87.99.03,1.95.03,2.94.03,7.76-13.99,17.85-26.75,29.72-37.52,2.09-1.85,5.23-2.02,7.25,0s2.09,5.4,0,7.29c-9.89,8.93-18.37,19.22-25.28,30.54,15.63.62,31.19,2.02,46.52,4.99,7.11,1.4,14.2,3.22,21.04,5.61,6.67,2.33,13.72,4.86,19.12,9.54.89.75,1.64,1.54,2.33,2.36,12.04-7.7,23.67-16.04,32.8-27.16Z"/>
  <path class="st0" d="M628.34,413.76c-.79-4.52-7.29-6.19-11.01-7.56-12.31-4.62-25.38-7.39-38.45-8.89-28.39-3.32-57.33-2.77-85.82-2.12-29.28.68-58.52,2.53-87.56,6.19-28.25,3.59-56.37,9.13-83.66,17.21-3.42,1.03-6.81,2.05-10.19,3.15-1.27.44-4.82,1.03-5.61,2.26-.72,1.13.68,5.06.96,6.23.65,3.11,1.47,6.19,2.36,9.24,3.18,10.74,7.76,20.9,13.37,30.54,3.8-1.64,7.59-3.22,11.46-4.65,26.06-9.78,53.6-15.32,81.1-19.19,28.56-4.04,57.46-6.94,86.3-7.94,28.8-.99,57.94.24,86.23,5.85,11.66,2.29,23.26,5.34,34.38,9.65,2.19.86,4.34,1.98,6.57,2.87-.1-12.59-.17-25.17-.24-37.76,0-1.64.1-3.45-.17-5.06Z"/>
  <path d="M593.49,691.2c-.1.03-.17,0-.24,0-6.29.65-20.39,4.69-20.39,4.69-7.22,3.28-22.85,7.01-55.72,13.17-11.56,2.19-51.03,9.89-94.51-3.25-6.12-1.85-12.45-3.93-17.96-7.32,2.09-1.06,3.76-3.04,4.34-5.3,2.5-9.92-4.1-19.6-13.78-22.23-4.31-1.2-9.3-.58-13.07,1.85-3.15,2.02-4.55,5.58-5.03,9.3-11.8-3.39-22.4-11.49-29.96-21.21-14.88-19.02-16.97-44.47-13.27-67.62,2.46-15.46,7.08-30.51,12.35-45.25,1.54-4.34-1.74-9.37-5.99-10.54-4.72-1.3-8.96,1.61-10.5,5.99-10.36,29.07-18.23,60.23-12.48,91.16.51,2.7,1.2,5.4,1.95,8.07l.82,2.6c6.74,20.8,21.48,39.37,41.25,48.95,6.57,3.15,13.41,5.27,20.42,6.16,8.41,12.72,26.34,19.22,40.02,22.95,21.21,5.81,43.51,7.05,65.4,5.85,16.73-.92,36.43-1.57,60.85-8.89,26.54-7.94,54.35-21.65,52.98-26.54-.44-1.54-3.83-2.6-6.7-2.6h-.03c-.24,0-.51,0-.75.03ZM392.93,689.24c-4.41,0-4.4-6.84,0-6.84s4.4,6.84,0,6.84Z"/>
  <path class="st1" d="M593.49,691.2c.24-.03.51-.03.75-.03"/>
  <path d="M548.07,508c-7.53,0-13.58,10.57-13.58,23.57s6.05,23.6,13.58,23.6,13.58-10.57,13.58-23.6-6.09-23.57-13.58-23.57Z"/>
  <path d="M537.94,579.89c-3.59-.65-8.96-1.85-14.26-2.29,2.22-4.34,3.76-9.44,2.7-13.89-.07-.41-.21-.82-.38-1.23-.07-.21-.1-.41-.17-.62-.31-.65-.82-1.2-1.44-1.61-.31-.27-.62-.51-.96-.72-.89-.75-2.02-1.27-3.22-1.27-.38-.1-.82-.24-.89-.27-1.3-.27-2.6-.44-3.9-.62-2.09-.24-4.17-.34-6.26-.34-4.04,0-8.04.07-11.87,1.23h-.07c-1.06,0-2.02.41-2.94.92-.07.07-.65.48-.79.58-.62.34-1.3.51-1.92.82-2.15,1.13-4.1,2.91-5.3,5.03-2.36,4.17-2.46,9.51-.82,13.96.44,1.16.96,2.29,1.54,3.35-6.05,1.23-11.94,3.83-17.2,6.98-4.89,2.98-10.81,6.6-13.68,11.8-2.87,5.16-1.81,11.39,2.43,15.46,9.95,9.47,26.1,1.37,35.81-4.45,4.99-3.01,10.81-6.64,14.26-11.46.17-.27.34-.58.51-.86,1.2.86,2.43,1.64,3.73,2.36,5.95,3.25,12.62,5.27,19.15,7.01,6.88,1.85,14.4,2.43,20.32-2.26,5.44-4.31,6.57-11.49,3.18-17.51-3.63-6.43-10.74-8.86-17.58-10.12Z"/>
  <path d="M472.64,531.56c0-13-6.09-23.57-13.58-23.57s-13.58,10.57-13.58,23.57,6.05,23.6,13.58,23.6,13.58-10.57,13.58-23.6Z"/>
  <path class="st0" d="M392.93,682.4c-4.4,0-4.41,6.84,0,6.84s4.41-6.84,0-6.84Z"/>
</svg>